<svg class="rich-terminal" viewBox="0 0 2214 1148.0" xmlns="http://www.w3.org/2000/svg">
    <!-- Generated with Rich https://www.textualize.io -->
    <style>

    @font-face {
        font-family: "Fira Code";
        src: local("FiraCode-Regular"),
                url("https://cdnjs.cloudflare.com/ajax/libs/firacode/6.2.0/woff2/FiraCode-Regular.woff2") format("woff2"),
                url("https://cdnjs.cloudflare.com/ajax/libs/firacode/6.2.0/woff/FiraCode-Regular.woff") format("woff");
        font-style: normal;
        font-weight: 400;
    }
    @font-face {
        font-family: "Fira Code";
        src: local("FiraCode-Bold"),
                url("https://cdnjs.cloudflare.com/ajax/libs/firacode/6.2.0/woff2/FiraCode-Bold.woff2") format("woff2"),
                url("https://cdnjs.cloudflare.com/ajax/libs/firacode/6.2.0/woff/FiraCode-Bold.woff") format("woff");
        font-style: bold;
        font-weight: 700;
    }

    .terminal-2336817473-matrix {
        font-family: Fira Code, monospace;
        font-size: 20px;
        line-height: 24.4px;
        font-variant-east-asian: full-width;
    }

    .terminal-2336817473-title {
        font-size: 18px;
        font-weight: bold;
        font-family: arial;
    }

    .terminal-2336817473-r1 { fill: #e0e0e0;font-weight: bold }
.terminal-2336817473-r2 { fill: #e0e0e0 }
.terminal-2336817473-r3 { fill: #c5c8c6 }
.terminal-2336817473-r4 { fill: #a1a5a8 }
.terminal-2336817473-r5 { fill: #ffa62b;font-weight: bold }
    </style>

    <defs>
    <clipPath id="terminal-2336817473-clip-terminal">
      <rect x="0" y="0" width="2195.0" height="1097.0" />
    </clipPath>
    <clipPath id="terminal-2336817473-line-0">
    <rect x="0" y="1.5" width="2196" height="24.65"/>
            </clipPath>
<clipPath id="terminal-2336817473-line-1">
    <rect x="0" y="25.9" width="2196" height="24.65"/>
            </clipPath>
<clipPath id="terminal-2336817473-line-2">
    <rect x="0" y="50.3" width="2196" height="24.65"/>
            </clipPath>
<clipPath id="terminal-2336817473-line-3">
    <rect x="0" y="74.7" width="2196" height="24.65"/>
            </clipPath>
<clipPath id="terminal-2336817473-line-4">
    <rect x="0" y="99.1" width="2196" height="24.65"/>
            </clipPath>
<clipPath id="terminal-2336817473-line-5">
    <rect x="0" y="123.5" width="2196" height="24.65"/>
            </clipPath>
<clipPath id="terminal-2336817473-line-6">
    <rect x="0" y="147.9" width="2196" height="24.65"/>
            </clipPath>
<clipPath id="terminal-2336817473-line-7">
    <rect x="0" y="172.3" width="2196" height="24.65"/>
            </clipPath>
<clipPath id="terminal-2336817473-line-8">
    <rect x="0" y="196.7" width="2196" height="24.65"/>
            </clipPath>
<clipPath id="terminal-2336817473-line-9">
    <rect x="0" y="221.1" width="2196" height="24.65"/>
            </clipPath>
<clipPath id="terminal-2336817473-line-10">
    <rect x="0" y="245.5" width="2196" height="24.65"/>
            </clipPath>
<clipPath id="terminal-2336817473-line-11">
    <rect x="0" y="269.9" width="2196" height="24.65"/>
            </clipPath>
<clipPath id="terminal-2336817473-line-12">
    <rect x="0" y="294.3" width="2196" height="24.65"/>
            </clipPath>
<clipPath id="terminal-2336817473-line-13">
    <rect x="0" y="318.7" width="2196" height="24.65"/>
            </clipPath>
<clipPath id="terminal-2336817473-line-14">
    <rect x="0" y="343.1" width="2196" height="24.65"/>
            </clipPath>
<clipPath id="terminal-2336817473-line-15">
    <rect x="0" y="367.5" width="2196" height="24.65"/>
            </clipPath>
<clipPath id="terminal-2336817473-line-16">
    <rect x="0" y="391.9" width="2196" height="24.65"/>
            </clipPath>
<clipPath id="terminal-2336817473-line-17">
    <rect x="0" y="416.3" width="2196" height="24.65"/>
            </clipPath>
<clipPath id="terminal-2336817473-line-18">
    <rect x="0" y="440.7" width="2196" height="24.65"/>
            </clipPath>
<clipPath id="terminal-2336817473-line-19">
    <rect x="0" y="465.1" width="2196" height="24.65"/>
            </clipPath>
<clipPath id="terminal-2336817473-line-20">
    <rect x="0" y="489.5" width="2196" height="24.65"/>
            </clipPath>
<clipPath id="terminal-2336817473-line-21">
    <rect x="0" y="513.9" width="2196" height="24.65"/>
            </clipPath>
<clipPath id="terminal-2336817473-line-22">
    <rect x="0" y="538.3" width="2196" height="24.65"/>
            </clipPath>
<clipPath id="terminal-2336817473-line-23">
    <rect x="0" y="562.7" width="2196" height="24.65"/>
            </clipPath>
<clipPath id="terminal-2336817473-line-24">
    <rect x="0" y="587.1" width="2196" height="24.65"/>
            </clipPath>
<clipPath id="terminal-2336817473-line-25">
    <rect x="0" y="611.5" width="2196" height="24.65"/>
            </clipPath>
<clipPath id="terminal-2336817473-line-26">
    <rect x="0" y="635.9" width="2196" height="24.65"/>
            </clipPath>
<clipPath id="terminal-2336817473-line-27">
    <rect x="0" y="660.3" width="2196" height="24.65"/>
            </clipPath>
<clipPath id="terminal-2336817473-line-28">
    <rect x="0" y="684.7" width="2196" height="24.65"/>
            </clipPath>
<clipPath id="terminal-2336817473-line-29">
    <rect x="0" y="709.1" width="2196" height="24.65"/>
            </clipPath>
<clipPath id="terminal-2336817473-line-30">
    <rect x="0" y="733.5" width="2196" height="24.65"/>
            </clipPath>
<clipPath id="terminal-2336817473-line-31">
    <rect x="0" y="757.9" width="2196" height="24.65"/>
            </clipPath>
<clipPath id="terminal-2336817473-line-32">
    <rect x="0" y="782.3" width="2196" height="24.65"/>
            </clipPath>
<clipPath id="terminal-2336817473-line-33">
    <rect x="0" y="806.7" width="2196" height="24.65"/>
            </clipPath>
<clipPath id="terminal-2336817473-line-34">
    <rect x="0" y="831.1" width="2196" height="24.65"/>
            </clipPath>
<clipPath id="terminal-2336817473-line-35">
    <rect x="0" y="855.5" width="2196" height="24.65"/>
            </clipPath>
<clipPath id="terminal-2336817473-line-36">
    <rect x="0" y="879.9" width="2196" height="24.65"/>
            </clipPath>
<clipPath id="terminal-2336817473-line-37">
    <rect x="0" y="904.3" width="2196" height="24.65"/>
            </clipPath>
<clipPath id="terminal-2336817473-line-38">
    <rect x="0" y="928.7" width="2196" height="24.65"/>
            </clipPath>
<clipPath id="terminal-2336817473-line-39">
    <rect x="0" y="953.1" width="2196" height="24.65"/>
            </clipPath>
<clipPath id="terminal-2336817473-line-40">
    <rect x="0" y="977.5" width="2196" height="24.65"/>
            </clipPath>
<clipPath id="terminal-2336817473-line-41">
    <rect x="0" y="1001.9" width="2196" height="24.65"/>
            </clipPath>
<clipPath id="terminal-2336817473-line-42">
    <rect x="0" y="1026.3" width="2196" height="24.65"/>
            </clipPath>
<clipPath id="terminal-2336817473-line-43">
    <rect x="0" y="1050.7" width="2196" height="24.65"/>
            </clipPath>
    </defs>

    <rect fill="#292929" stroke="rgba(255,255,255,0.35)" stroke-width="1" x="1" y="1" width="2212" height="1146" rx="8"/><text class="terminal-2336817473-title" fill="#c5c8c6" text-anchor="middle" x="1106" y="27">Steam&#160;Family&#160;Collections&#160;[DEMO&#160;MODE]</text>
            <g transform="translate(26,22)">
            <circle cx="0" cy="0" r="7" fill="#ff5f57"/>
            <circle cx="22" cy="0" r="7" fill="#febc2e"/>
            <circle cx="44" cy="0" r="7" fill="#28c840"/>
            </g>
        
    <g transform="translate(9, 41)" clip-path="url(#terminal-2336817473-clip-terminal)">
    <rect fill="#2d3740" x="0" y="1.5" width="1122.4" height="24.65" shape-rendering="crispEdges"/><rect fill="#2d3740" x="1122.4" y="1.5" width="146.4" height="24.65" shape-rendering="crispEdges"/><rect fill="#2d3740" x="1268.8" y="1.5" width="146.4" height="24.65" shape-rendering="crispEdges"/><rect fill="#2d3740" x="1415.2" y="1.5" width="158.6" height="24.65" shape-rendering="crispEdges"/><rect fill="#2d3740" x="1573.8" y="1.5" width="146.4" height="24.65" shape-rendering="crispEdges"/><rect fill="#2d3740" x="1720.2" y="1.5" width="146.4" height="24.65" shape-rendering="crispEdges"/><rect fill="#2b3339" x="1866.6" y="1.5" width="329.4" height="24.65" shape-rendering="crispEdges"/><rect fill="#272727" x="0" y="25.9" width="2196" height="24.65" shape-rendering="crispEdges"/><rect fill="#272727" x="0" y="50.3" width="2196" height="24.65" shape-rendering="crispEdges"/><rect fill="#272727" x="0" y="74.7" width="2196" height="24.65" shape-rendering="crispEdges"/><rect fill="#272727" x="0" y="99.1" width="2196" height="24.65" shape-rendering="crispEdges"/><rect fill="#272727" x="0" y="123.5" width="2196" height="24.65" shape-rendering="crispEdges"/><rect fill="#272727" x="0" y="147.9" width="2196" height="24.65" shape-rendering="crispEdges"/><rect fill="#272727" x="0" y="172.3" width="2196" height="24.65" shape-rendering="crispEdges"/><rect fill="#272727" x="0" y="196.7" width="2196" height="24.65" shape-rendering="crispEdges"/><rect fill="#272727" x="0" y="221.1" width="2196" height="24.65" shape-rendering="crispEdges"/><rect fill="#272727" x="0" y="245.5" width="2196" height="24.65" shape-rendering="crispEdges"/><rect fill="#272727" x="0" y="269.9" width="2196" height="24.65" shape-rendering="crispEdges"/><rect fill="#272727" x="0" y="294.3" width="2196" height="24.65" shape-rendering="crispEdges"/><rect fill="#272727" x="0" y="318.7" width="2196" height="24.65" shape-rendering="crispEdges"/><rect fill="#272727" x="0" y="343.1" width="2196" height="24.65" shape-rendering="crispEdges"/><rect fill="#272727" x="0" y="367.5" width="2196" height="24.65" shape-rendering="crispEdges"/><rect fill="#272727" x="0" y="391.9" width="2196" height="24.65" shape-rendering="crispEdges"/><rect fill="#272727" x="0" y="416.3" width="2196" height="24.65" shape-rendering="crispEdges"/><rect fill="#272727" x="0" y="440.7" width="2196" height="24.65" shape-rendering="crispEdges"/><rect fill="#272727" x="0" y="465.1" width="2196" height="24.65" shape-rendering="crispEdges"/><rect fill="#272727" x="0" y="489.5" width="2196" height="24.65" shape-rendering="crispEdges"/><rect fill="#272727" x="0" y="513.9" width="2196" height="24.65" shape-rendering="crispEdges"/><rect fill="#272727" x="0" y="538.3" width="2196" height="24.65" shape-rendering="crispEdges"/><rect fill="#272727" x="0" y="562.7" width="2196" height="24.65" shape-rendering="crispEdges"/><rect fill="#272727" x="0" y="587.1" width="2196" height="24.65" shape-rendering="crispEdges"/><rect fill="#272727" x="0" y="611.5" width="2196" height="24.65" shape-rendering="crispEdges"/><rect fill="#272727" x="0" y="635.9" width="2196" height="24.65" shape-rendering="crispEdges"/><rect fill="#272727" x="0" y="660.3" width="2196" height="24.65" shape-rendering="crispEdges"/><rect fill="#272727" x="0" y="684.7" width="2196" height="24.65" shape-rendering="crispEdges"/><rect fill="#272727" x="0" y="709.1" width="2196" height="24.65" shape-rendering="crispEdges"/><rect fill="#272727" x="0" y="733.5" width="2196" height="24.65" shape-rendering="crispEdges"/><rect fill="#272727" x="0" y="757.9" width="2196" height="24.65" shape-rendering="crispEdges"/><rect fill="#272727" x="0" y="782.3" width="2196" height="24.65" shape-rendering="crispEdges"/><rect fill="#272727" x="0" y="806.7" width="2196" height="24.65" shape-rendering="crispEdges"/><rect fill="#272727" x="0" y="831.1" width="2196" height="24.65" shape-rendering="crispEdges"/><rect fill="#272727" x="0" y="855.5" width="2196" height="24.65" shape-rendering="crispEdges"/><rect fill="#272727" x="0" y="879.9" width="2196" height="24.65" shape-rendering="crispEdges"/><rect fill="#272727" x="0" y="904.3" width="2196" height="24.65" shape-rendering="crispEdges"/><rect fill="#272727" x="0" y="928.7" width="2196" height="24.65" shape-rendering="crispEdges"/><rect fill="#272727" x="0" y="953.1" width="2196" height="24.65" shape-rendering="crispEdges"/><rect fill="#272727" x="0" y="977.5" width="2196" height="24.65" shape-rendering="crispEdges"/><rect fill="#272727" x="0" y="1001.9" width="2196" height="24.65" shape-rendering="crispEdges"/><rect fill="#272727" x="0" y="1026.3" width="2196" height="24.65" shape-rendering="crispEdges"/><rect fill="#141f27" x="0" y="1050.7" width="12.2" height="24.65" shape-rendering="crispEdges"/><rect fill="#141f27" x="12.2" y="1050.7" width="414.8" height="24.65" shape-rendering="crispEdges"/><rect fill="#141f27" x="427" y="1050.7" width="12.2" height="24.65" shape-rendering="crispEdges"/><rect fill="#121212" x="439.2" y="1050.7" width="1756.8" height="24.65" shape-rendering="crispEdges"/><rect fill="#242f38" x="0" y="1075.1" width="36.6" height="24.65" shape-rendering="crispEdges"/><rect fill="#242f38" x="36.6" y="1075.1" width="85.4" height="24.65" shape-rendering="crispEdges"/><rect fill="#242f38" x="122" y="1075.1" width="36.6" height="24.65" shape-rendering="crispEdges"/><rect fill="#242f38" x="158.6" y="1075.1" width="146.4" height="24.65" shape-rendering="crispEdges"/><rect fill="#242f38" x="305" y="1075.1" width="36.6" height="24.65" shape-rendering="crispEdges"/><rect fill="#242f38" x="341.6" y="1075.1" width="219.6" height="24.65" shape-rendering="crispEdges"/><rect fill="#242f38" x="561.2" y="1075.1" width="36.6" height="24.65" shape-rendering="crispEdges"/><rect fill="#242f38" x="597.8" y="1075.1" width="158.6" height="24.65" shape-rendering="crispEdges"/><rect fill="#242f38" x="756.4" y="1075.1" width="36.6" height="24.65" shape-rendering="crispEdges"/><rect fill="#242f38" x="793" y="1075.1" width="85.4" height="24.65" shape-rendering="crispEdges"/><rect fill="#242f38" x="878.4" y="1075.1" width="36.6" height="24.65" shape-rendering="crispEdges"/><rect fill="#242f38" x="915" y="1075.1" width="146.4" height="24.65" shape-rendering="crispEdges"/><rect fill="#242f38" x="1061.4" y="1075.1" width="48.8" height="24.65" shape-rendering="crispEdges"/><rect fill="#242f38" x="1110.2" y="1075.1" width="170.8" height="24.65" shape-rendering="crispEdges"/><rect fill="#242f38" x="1281" y="1075.1" width="48.8" height="24.65" shape-rendering="crispEdges"/><rect fill="#242f38" x="1329.8" y="1075.1" width="183" height="24.65" shape-rendering="crispEdges"/><rect fill="#242f38" x="1512.8" y="1075.1" width="48.8" height="24.65" shape-rendering="crispEdges"/><rect fill="#242f38" x="1561.6" y="1075.1" width="109.8" height="24.65" shape-rendering="crispEdges"/><rect fill="#242f38" x="1671.4" y="1075.1" width="36.6" height="24.65" shape-rendering="crispEdges"/><rect fill="#242f38" x="1708" y="1075.1" width="61" height="24.65" shape-rendering="crispEdges"/><rect fill="#242f38" x="1769" y="1075.1" width="427" height="24.65" shape-rendering="crispEdges"/>
    <g class="terminal-2336817473-matrix">
    <text class="terminal-2336817473-r1" x="0" y="20" textLength="1122.4" clip-path="url(#terminal-2336817473-line-0)">&#160;Title&#160;&#160;&#160;&#160;&#160;&#160;&#160;&#160;&#160;&#160;&#160;&#160;&#160;&#160;&#160;&#160;&#160;&#160;&#160;&#160;&#160;&#160;&#160;&#160;&#160;&#160;&#160;&#160;&#160;&#160;&#160;&#160;&#160;&#160;&#160;&#160;&#160;&#160;&#160;&#160;&#160;&#160;&#160;&#160;&#160;&#160;&#160;&#160;&#160;&#160;&#160;&#160;&#160;&#160;&#160;&#160;&#160;&#160;&#160;&#160;&#160;&#160;&#160;&#160;&#160;&#160;&#160;&#160;&#160;&#160;&#160;&#160;&#160;&#160;&#160;&#160;&#160;&#160;&#160;&#160;&#160;&#160;&#160;&#160;&#160;&#160;</text><text class="terminal-2336817473-r1" x="1122.4" y="20" textLength="146.4" clip-path="url(#terminal-2336817473-line-0)">&#160;AppID&#160;&#160;&#160;&#160;&#160;&#160;</text><text class="terminal-2336817473-r1" x="1268.8" y="20" textLength="146.4" clip-path="url(#terminal-2336817473-line-0)">&#160;Moby&#160;ID&#160;&#160;&#160;&#160;</text><text class="terminal-2336817473-r1" x="1415.2" y="20" textLength="158.6" clip-path="url(#terminal-2336817473-line-0)">&#160;Age&#160;Rating&#160;&#160;</text><text class="terminal-2336817473-r1" x="1573.8" y="20" textLength="146.4" clip-path="url(#terminal-2336817473-line-0)">&#160;Scheme&#160;&#160;&#160;&#160;&#160;</text><text class="terminal-2336817473-r1" x="1720.2" y="20" textLength="146.4" clip-path="url(#terminal-2336817473-line-0)">&#160;Flag&#160;&#160;&#160;&#160;&#160;&#160;&#160;</text><text class="terminal-2336817473-r3" x="2196" y="20" textLength="12.2" clip-path="url(#terminal-2336817473-line-0)">
</text><text class="terminal-2336817473-r3" x="2196" y="44.4" textLength="12.2" clip-path="url(#terminal-2336817473-line-1)">
</text><text class="terminal-2336817473-r3" x="2196" y="68.8" textLength="12.2" clip-path="url(#terminal-2336817473-line-2)">
</text><text class="terminal-2336817473-r3" x="2196" y="93.2" textLength="12.2" clip-path="url(#terminal-2336817473-line-3)">
</text><text class="terminal-2336817473-r3" x="2196" y="117.6" textLength="12.2" clip-path="url(#terminal-2336817473-line-4)">
</text><text class="terminal-2336817473-r3" x="2196" y="142" textLength="12.2" clip-path="url(#terminal-2336817473-line-5)">
</text><text class="terminal-2336817473-r3" x="2196" y="166.4" textLength="12.2" clip-path="url(#terminal-2336817473-line-6)">
</text><text class="terminal-2336817473-r3" x="2196" y="190.8" textLength="12.2" clip-path="url(#terminal-2336817473-line-7)">
</text><text class="terminal-2336817473-r3" x="2196" y="215.2" textLength="12.2" clip-path="url(#terminal-2336817473-line-8)">
</text><text class="terminal-2336817473-r3" x="2196" y="239.6" textLength="12.2" clip-path="url(#terminal-2336817473-line-9)">
</text><text class="terminal-2336817473-r3" x="2196" y="264" textLength="12.2" clip-path="url(#terminal-2336817473-line-10)">
</text><text class="terminal-2336817473-r3" x="2196" y="288.4" textLength="12.2" clip-path="url(#terminal-2336817473-line-11)">
</text><text class="terminal-2336817473-r3" x="2196" y="312.8" textLength="12.2" clip-path="url(#terminal-2336817473-line-12)">
</text><text class="terminal-2336817473-r3" x="2196" y="337.2" textLength="12.2" clip-path="url(#terminal-2336817473-line-13)">
</text><text class="terminal-2336817473-r3" x="2196" y="361.6" textLength="12.2" clip-path="url(#terminal-2336817473-line-14)">
</text><text class="terminal-2336817473-r3" x="2196" y="386" textLength="12.2" clip-path="url(#terminal-2336817473-line-15)">
</text><text class="terminal-2336817473-r3" x="2196" y="410.4" textLength="12.2" clip-path="url(#terminal-2336817473-line-16)">
</text><text class="terminal-2336817473-r3" x="2196" y="434.8" textLength="12.2" clip-path="url(#terminal-2336817473-line-17)">
</text><text class="terminal-2336817473-r3" x="2196" y="459.2" textLength="12.2" clip-path="url(#terminal-2336817473-line-18)">
</text><text class="terminal-2336817473-r3" x="2196" y="483.6" textLength="12.2" clip-path="url(#terminal-2336817473-line-19)">
</text><text class="terminal-2336817473-r3" x="2196" y="508" textLength="12.2" clip-path="url(#terminal-2336817473-line-20)">
</text><text class="terminal-2336817473-r3" x="2196" y="532.4" textLength="12.2" clip-path="url(#terminal-2336817473-line-21)">
</text><text class="terminal-2336817473-r3" x="2196" y="556.8" textLength="12.2" clip-path="url(#terminal-2336817473-line-22)">
</text><text class="terminal-2336817473-r3" x="2196" y="581.2" textLength="12.2" clip-path="url(#terminal-2336817473-line-23)">
</text><text class="terminal-2336817473-r3" x="2196" y="605.6" textLength="12.2" clip-path="url(#terminal-2336817473-line-24)">
</text><text class="terminal-2336817473-r3" x="2196" y="630" textLength="12.2" clip-path="url(#terminal-2336817473-line-25)">
</text><text class="terminal-2336817473-r3" x="2196" y="654.4" textLength="12.2" clip-path="url(#terminal-2336817473-line-26)">
</text><text class="terminal-2336817473-r3" x="2196" y="678.8" textLength="12.2" clip-path="url(#terminal-2336817473-line-27)">
</text><text class="terminal-2336817473-r3" x="2196" y="703.2" textLength="12.2" clip-path="url(#terminal-2336817473-line-28)">
</text><text class="terminal-2336817473-r3" x="2196" y="727.6" textLength="12.2" clip-path="url(#terminal-2336817473-line-29)">
</text><text class="terminal-2336817473-r3" x="2196" y="752" textLength="12.2" clip-path="url(#terminal-2336817473-line-30)">
</text><text class="terminal-2336817473-r3" x="2196" y="776.4" textLength="12.2" clip-path="url(#terminal-2336817473-line-31)">
</text><text class="terminal-2336817473-r3" x="2196" y="800.8" textLength="12.2" clip-path="url(#terminal-2336817473-line-32)">
</text><text class="terminal-2336817473-r3" x="2196" y="825.2" textLength="12.2" clip-path="url(#terminal-2336817473-line-33)">
</text><text class="terminal-2336817473-r3" x="2196" y="849.6" textLength="12.2" clip-path="url(#terminal-2336817473-line-34)">
</text><text class="terminal-2336817473-r3" x="2196" y="874" textLength="12.2" clip-path="url(#terminal-2336817473-line-35)">
</text><text class="terminal-2336817473-r3" x="2196" y="898.4" textLength="12.2" clip-path="url(#terminal-2336817473-line-36)">
</text><text class="terminal-2336817473-r3" x="2196" y="922.8" textLength="12.2" clip-path="url(#terminal-2336817473-line-37)">
</text><text class="terminal-2336817473-r3" x="2196" y="947.2" textLength="12.2" clip-path="url(#terminal-2336817473-line-38)">
</text><text class="terminal-2336817473-r3" x="2196" y="971.6" textLength="12.2" clip-path="url(#terminal-2336817473-line-39)">
</text><text class="terminal-2336817473-r3" x="2196" y="996" textLength="12.2" clip-path="url(#terminal-2336817473-line-40)">
</text><text class="terminal-2336817473-r3" x="2196" y="1020.4" textLength="12.2" clip-path="url(#terminal-2336817473-line-41)">
</text><text class="terminal-2336817473-r3" x="2196" y="1044.8" textLength="12.2" clip-path="url(#terminal-2336817473-line-42)">
</text><text class="terminal-2336817473-r4" x="12.2" y="1069.2" textLength="414.8" clip-path="url(#terminal-2336817473-line-43)">Filter:&#160;unrated&#160;—&#160;0/25&#160;games&#160;shown</text><text class="terminal-2336817473-r3" x="2196" y="1069.2" textLength="12.2" clip-path="url(#terminal-2336817473-line-43)">
</text><text class="terminal-2336817473-r5" x="0" y="1093.6" textLength="36.6" clip-path="url(#terminal-2336817473-line-44)">&#160;d&#160;</text><text class="terminal-2336817473-r2" x="36.6" y="1093.6" textLength="85.4" clip-path="url(#terminal-2336817473-line-44)">Delete&#160;</text><text class="terminal-2336817473-r5" x="122" y="1093.6" textLength="36.6" clip-path="url(#terminal-2336817473-line-44)">&#160;e&#160;</text><text class="terminal-2336817473-r2" x="158.6" y="1093.6" textLength="146.4" clip-path="url(#terminal-2336817473-line-44)">Edit&#160;Rating&#160;</text><text class="terminal-2336817473-r5" x="305" y="1093.6" textLength="36.6" clip-path="url(#terminal-2336817473-line-44)">&#160;m&#160;</text><text class="terminal-2336817473-r2" x="341.6" y="1093.6" textLength="219.6" clip-path="url(#terminal-2336817473-line-44)">Search&#160;MobyGames…&#160;</text><text class="terminal-2336817473-r5" x="561.2" y="1093.6" textLength="36.6" clip-path="url(#terminal-2336817473-line-44)">&#160;a&#160;</text><text class="terminal-2336817473-r2" x="597.8" y="1093.6" textLength="158.6" clip-path="url(#terminal-2336817473-line-44)">Add&#160;to&#160;Child&#160;</text><text class="terminal-2336817473-r5" x="756.4" y="1093.6" textLength="36.6" clip-path="url(#terminal-2336817473-line-44)">&#160;f&#160;</text><text class="terminal-2336817473-r2" x="793" y="1093.6" textLength="85.4" clip-path="url(#terminal-2336817473-line-44)">Filter&#160;</text><text class="terminal-2336817473-r5" x="878.4" y="1093.6" textLength="36.6" clip-path="url(#terminal-2336817473-line-44)">&#160;i&#160;</text><text class="terminal-2336817473-r2" x="915" y="1093.6" textLength="146.4" clip-path="url(#terminal-2336817473-line-44)">Set&#160;Moby&#160;ID&#160;</text><text class="terminal-2336817473-r5" x="1061.4" y="1093.6" textLength="48.8" clip-path="url(#terminal-2336817473-line-44)">&#160;f1&#160;</text><text class="terminal-2336817473-r2" x="1110.2" y="1093.6" textLength="170.8" clip-path="url(#terminal-2336817473-line-44)">Fetch&#160;Library&#160;</text><text class="terminal-2336817473-r5" x="1281" y="1093.6" textLength="48.8" clip-path="url(#terminal-2336817473-line-44)">&#160;f2&#160;</text><text class="terminal-2336817473-r2" x="1329.8" y="1093.6" textLength="183" clip-path="url(#terminal-2336817473-line-44)">Enrich&#160;Ratings&#160;</text><text class="terminal-2336817473-r5" x="1512.8" y="1093.6" textLength="48.8" clip-path="url(#terminal-2336817473-line-44)">&#160;f3&#160;</text><text class="terminal-2336817473-r2" x="1561.6" y="1093.6" textLength="109.8" clip-path="url(#terminal-2336817473-line-44)">Children&#160;</text><text class="terminal-2336817473-r5" x="1671.4" y="1093.6" textLength="36.6" clip-path="url(#terminal-2336817473-line-44)">&#160;q&#160;</text><text class="terminal-2336817473-r2" x="1708" y="1093.6" textLength="61" clip-path="url(#terminal-2336817473-line-44)">Quit&#160;</text>
    </g>
    </g>
</svg>
